<mxfile host="app.diagrams.net" modified="2023-12-18T20:07:41.403Z" agent="Mozilla/5.0 (Windows NT 10.0; Win64; x64) AppleWebKit/537.36 (KHTML, like Gecko) Chrome/120.0.0.0 Safari/537.36" etag="6qPDKddzdGezUxHjMv2L" version="22.1.11" type="github">
  <diagram name="Page-1" id="fmqiY6qaehvYOJ54ily-">
    <mxGraphModel dx="2074" dy="1140" grid="1" gridSize="10" guides="1" tooltips="1" connect="1" arrows="1" fold="1" page="1" pageScale="1" pageWidth="850" pageHeight="1100" math="0" shadow="0">
      <root>
        <mxCell id="0" />
        <mxCell id="1" parent="0" />
        <mxCell id="1bwolzDRPxHdKVG914XL-31" style="edgeStyle=orthogonalEdgeStyle;rounded=0;orthogonalLoop=1;jettySize=auto;html=1;" edge="1" parent="1" source="1bwolzDRPxHdKVG914XL-1" target="1bwolzDRPxHdKVG914XL-25">
          <mxGeometry relative="1" as="geometry" />
        </mxCell>
        <mxCell id="1bwolzDRPxHdKVG914XL-1" value="Mitsos" style="shape=umlActor;verticalLabelPosition=bottom;verticalAlign=top;html=1;outlineConnect=0;" vertex="1" parent="1">
          <mxGeometry x="40" y="445" width="55" height="110" as="geometry" />
        </mxCell>
        <mxCell id="1bwolzDRPxHdKVG914XL-9" style="edgeStyle=orthogonalEdgeStyle;rounded=0;orthogonalLoop=1;jettySize=auto;html=1;" edge="1" parent="1" source="1bwolzDRPxHdKVG914XL-4" target="1bwolzDRPxHdKVG914XL-7">
          <mxGeometry relative="1" as="geometry" />
        </mxCell>
        <mxCell id="1bwolzDRPxHdKVG914XL-4" value="DB 1" style="shape=cylinder3;whiteSpace=wrap;html=1;boundedLbl=1;backgroundOutline=1;size=15;fillColor=#dae8fc;strokeColor=#6c8ebf;" vertex="1" parent="1">
          <mxGeometry x="770" y="370" width="60" height="80" as="geometry" />
        </mxCell>
        <mxCell id="1bwolzDRPxHdKVG914XL-8" style="edgeStyle=orthogonalEdgeStyle;rounded=0;orthogonalLoop=1;jettySize=auto;html=1;" edge="1" parent="1" source="1bwolzDRPxHdKVG914XL-5" target="1bwolzDRPxHdKVG914XL-7">
          <mxGeometry relative="1" as="geometry" />
        </mxCell>
        <mxCell id="1bwolzDRPxHdKVG914XL-5" value="DB 2" style="shape=cylinder3;whiteSpace=wrap;html=1;boundedLbl=1;backgroundOutline=1;size=15;fillColor=#dae8fc;strokeColor=#6c8ebf;" vertex="1" parent="1">
          <mxGeometry x="770" y="460" width="60" height="80" as="geometry" />
        </mxCell>
        <mxCell id="1bwolzDRPxHdKVG914XL-10" style="edgeStyle=orthogonalEdgeStyle;rounded=0;orthogonalLoop=1;jettySize=auto;html=1;" edge="1" parent="1" source="1bwolzDRPxHdKVG914XL-6" target="1bwolzDRPxHdKVG914XL-7">
          <mxGeometry relative="1" as="geometry" />
        </mxCell>
        <mxCell id="1bwolzDRPxHdKVG914XL-6" value="DB 3" style="shape=cylinder3;whiteSpace=wrap;html=1;boundedLbl=1;backgroundOutline=1;size=15;fillColor=#dae8fc;strokeColor=#6c8ebf;" vertex="1" parent="1">
          <mxGeometry x="770" y="550" width="60" height="80" as="geometry" />
        </mxCell>
        <mxCell id="1bwolzDRPxHdKVG914XL-16" style="edgeStyle=orthogonalEdgeStyle;rounded=0;orthogonalLoop=1;jettySize=auto;html=1;" edge="1" parent="1" source="1bwolzDRPxHdKVG914XL-7" target="1bwolzDRPxHdKVG914XL-13">
          <mxGeometry relative="1" as="geometry" />
        </mxCell>
        <mxCell id="1bwolzDRPxHdKVG914XL-17" style="edgeStyle=orthogonalEdgeStyle;rounded=0;orthogonalLoop=1;jettySize=auto;html=1;" edge="1" parent="1" source="1bwolzDRPxHdKVG914XL-7" target="1bwolzDRPxHdKVG914XL-12">
          <mxGeometry relative="1" as="geometry" />
        </mxCell>
        <mxCell id="1bwolzDRPxHdKVG914XL-18" style="edgeStyle=orthogonalEdgeStyle;rounded=0;orthogonalLoop=1;jettySize=auto;html=1;" edge="1" parent="1" source="1bwolzDRPxHdKVG914XL-7" target="1bwolzDRPxHdKVG914XL-11">
          <mxGeometry relative="1" as="geometry" />
        </mxCell>
        <mxCell id="1bwolzDRPxHdKVG914XL-19" style="edgeStyle=orthogonalEdgeStyle;rounded=0;orthogonalLoop=1;jettySize=auto;html=1;" edge="1" parent="1" source="1bwolzDRPxHdKVG914XL-7" target="1bwolzDRPxHdKVG914XL-14">
          <mxGeometry relative="1" as="geometry" />
        </mxCell>
        <mxCell id="1bwolzDRPxHdKVG914XL-20" style="edgeStyle=orthogonalEdgeStyle;rounded=0;orthogonalLoop=1;jettySize=auto;html=1;" edge="1" parent="1" source="1bwolzDRPxHdKVG914XL-7" target="1bwolzDRPxHdKVG914XL-15">
          <mxGeometry relative="1" as="geometry" />
        </mxCell>
        <mxCell id="1bwolzDRPxHdKVG914XL-22" style="edgeStyle=orthogonalEdgeStyle;rounded=0;orthogonalLoop=1;jettySize=auto;html=1;" edge="1" parent="1" source="1bwolzDRPxHdKVG914XL-7" target="1bwolzDRPxHdKVG914XL-5">
          <mxGeometry relative="1" as="geometry" />
        </mxCell>
        <mxCell id="1bwolzDRPxHdKVG914XL-44" style="edgeStyle=orthogonalEdgeStyle;rounded=0;orthogonalLoop=1;jettySize=auto;html=1;" edge="1" parent="1" source="1bwolzDRPxHdKVG914XL-7" target="1bwolzDRPxHdKVG914XL-6">
          <mxGeometry relative="1" as="geometry" />
        </mxCell>
        <mxCell id="1bwolzDRPxHdKVG914XL-45" style="edgeStyle=orthogonalEdgeStyle;rounded=0;orthogonalLoop=1;jettySize=auto;html=1;" edge="1" parent="1" source="1bwolzDRPxHdKVG914XL-7" target="1bwolzDRPxHdKVG914XL-4">
          <mxGeometry relative="1" as="geometry" />
        </mxCell>
        <mxCell id="1bwolzDRPxHdKVG914XL-7" value="Core Lib" style="rounded=0;whiteSpace=wrap;html=1;rotation=90;fillColor=#d5e8d4;strokeColor=#82b366;" vertex="1" parent="1">
          <mxGeometry x="540" y="470" width="280" height="60" as="geometry" />
        </mxCell>
        <mxCell id="1bwolzDRPxHdKVG914XL-26" style="edgeStyle=orthogonalEdgeStyle;rounded=0;orthogonalLoop=1;jettySize=auto;html=1;" edge="1" parent="1" source="1bwolzDRPxHdKVG914XL-11" target="1bwolzDRPxHdKVG914XL-25">
          <mxGeometry relative="1" as="geometry" />
        </mxCell>
        <mxCell id="1bwolzDRPxHdKVG914XL-42" style="edgeStyle=orthogonalEdgeStyle;rounded=0;orthogonalLoop=1;jettySize=auto;html=1;" edge="1" parent="1" source="1bwolzDRPxHdKVG914XL-11" target="1bwolzDRPxHdKVG914XL-7">
          <mxGeometry relative="1" as="geometry" />
        </mxCell>
        <mxCell id="1bwolzDRPxHdKVG914XL-11" value="Auth Service" style="rounded=1;whiteSpace=wrap;html=1;" vertex="1" parent="1">
          <mxGeometry x="370" y="360" width="170" height="40" as="geometry" />
        </mxCell>
        <mxCell id="1bwolzDRPxHdKVG914XL-27" style="edgeStyle=orthogonalEdgeStyle;rounded=0;orthogonalLoop=1;jettySize=auto;html=1;" edge="1" parent="1" source="1bwolzDRPxHdKVG914XL-12" target="1bwolzDRPxHdKVG914XL-25">
          <mxGeometry relative="1" as="geometry" />
        </mxCell>
        <mxCell id="1bwolzDRPxHdKVG914XL-41" style="edgeStyle=orthogonalEdgeStyle;rounded=0;orthogonalLoop=1;jettySize=auto;html=1;" edge="1" parent="1" source="1bwolzDRPxHdKVG914XL-12" target="1bwolzDRPxHdKVG914XL-7">
          <mxGeometry relative="1" as="geometry" />
        </mxCell>
        <mxCell id="1bwolzDRPxHdKVG914XL-12" value="Booking Service" style="rounded=1;whiteSpace=wrap;html=1;" vertex="1" parent="1">
          <mxGeometry x="370" y="420" width="170" height="40" as="geometry" />
        </mxCell>
        <mxCell id="1bwolzDRPxHdKVG914XL-28" style="edgeStyle=orthogonalEdgeStyle;rounded=0;orthogonalLoop=1;jettySize=auto;html=1;" edge="1" parent="1" source="1bwolzDRPxHdKVG914XL-13" target="1bwolzDRPxHdKVG914XL-25">
          <mxGeometry relative="1" as="geometry" />
        </mxCell>
        <mxCell id="1bwolzDRPxHdKVG914XL-40" style="edgeStyle=orthogonalEdgeStyle;rounded=0;orthogonalLoop=1;jettySize=auto;html=1;" edge="1" parent="1" source="1bwolzDRPxHdKVG914XL-13" target="1bwolzDRPxHdKVG914XL-7">
          <mxGeometry relative="1" as="geometry" />
        </mxCell>
        <mxCell id="1bwolzDRPxHdKVG914XL-13" value="Paying Service" style="rounded=1;whiteSpace=wrap;html=1;" vertex="1" parent="1">
          <mxGeometry x="370" y="480" width="170" height="40" as="geometry" />
        </mxCell>
        <mxCell id="1bwolzDRPxHdKVG914XL-29" style="edgeStyle=orthogonalEdgeStyle;rounded=0;orthogonalLoop=1;jettySize=auto;html=1;" edge="1" parent="1" source="1bwolzDRPxHdKVG914XL-14" target="1bwolzDRPxHdKVG914XL-25">
          <mxGeometry relative="1" as="geometry" />
        </mxCell>
        <mxCell id="1bwolzDRPxHdKVG914XL-39" style="edgeStyle=orthogonalEdgeStyle;rounded=0;orthogonalLoop=1;jettySize=auto;html=1;" edge="1" parent="1" source="1bwolzDRPxHdKVG914XL-14" target="1bwolzDRPxHdKVG914XL-7">
          <mxGeometry relative="1" as="geometry" />
        </mxCell>
        <mxCell id="1bwolzDRPxHdKVG914XL-14" value="External API Service" style="rounded=1;whiteSpace=wrap;html=1;" vertex="1" parent="1">
          <mxGeometry x="370" y="540" width="170" height="40" as="geometry" />
        </mxCell>
        <mxCell id="1bwolzDRPxHdKVG914XL-30" style="edgeStyle=orthogonalEdgeStyle;rounded=0;orthogonalLoop=1;jettySize=auto;html=1;entryX=0.5;entryY=0;entryDx=0;entryDy=0;" edge="1" parent="1" source="1bwolzDRPxHdKVG914XL-15" target="1bwolzDRPxHdKVG914XL-25">
          <mxGeometry relative="1" as="geometry" />
        </mxCell>
        <mxCell id="1bwolzDRPxHdKVG914XL-38" style="edgeStyle=orthogonalEdgeStyle;rounded=0;orthogonalLoop=1;jettySize=auto;html=1;entryX=0.5;entryY=1;entryDx=0;entryDy=0;" edge="1" parent="1" source="1bwolzDRPxHdKVG914XL-15" target="1bwolzDRPxHdKVG914XL-7">
          <mxGeometry relative="1" as="geometry" />
        </mxCell>
        <mxCell id="1bwolzDRPxHdKVG914XL-15" value="Advertisment Service" style="rounded=1;whiteSpace=wrap;html=1;" vertex="1" parent="1">
          <mxGeometry x="370" y="600" width="170" height="40" as="geometry" />
        </mxCell>
        <mxCell id="1bwolzDRPxHdKVG914XL-32" style="edgeStyle=orthogonalEdgeStyle;rounded=0;orthogonalLoop=1;jettySize=auto;html=1;" edge="1" parent="1" source="1bwolzDRPxHdKVG914XL-25" target="1bwolzDRPxHdKVG914XL-11">
          <mxGeometry relative="1" as="geometry" />
        </mxCell>
        <mxCell id="1bwolzDRPxHdKVG914XL-33" style="edgeStyle=orthogonalEdgeStyle;rounded=0;orthogonalLoop=1;jettySize=auto;html=1;" edge="1" parent="1" source="1bwolzDRPxHdKVG914XL-25" target="1bwolzDRPxHdKVG914XL-12">
          <mxGeometry relative="1" as="geometry" />
        </mxCell>
        <mxCell id="1bwolzDRPxHdKVG914XL-34" style="edgeStyle=orthogonalEdgeStyle;rounded=0;orthogonalLoop=1;jettySize=auto;html=1;" edge="1" parent="1" source="1bwolzDRPxHdKVG914XL-25" target="1bwolzDRPxHdKVG914XL-13">
          <mxGeometry relative="1" as="geometry" />
        </mxCell>
        <mxCell id="1bwolzDRPxHdKVG914XL-36" style="edgeStyle=orthogonalEdgeStyle;rounded=0;orthogonalLoop=1;jettySize=auto;html=1;" edge="1" parent="1" source="1bwolzDRPxHdKVG914XL-25" target="1bwolzDRPxHdKVG914XL-14">
          <mxGeometry relative="1" as="geometry" />
        </mxCell>
        <mxCell id="1bwolzDRPxHdKVG914XL-37" style="edgeStyle=orthogonalEdgeStyle;rounded=0;orthogonalLoop=1;jettySize=auto;html=1;" edge="1" parent="1" source="1bwolzDRPxHdKVG914XL-25" target="1bwolzDRPxHdKVG914XL-15">
          <mxGeometry relative="1" as="geometry" />
        </mxCell>
        <mxCell id="1bwolzDRPxHdKVG914XL-25" value="UI" style="rounded=0;whiteSpace=wrap;html=1;rotation=90;fillColor=#f8cecc;strokeColor=#b85450;" vertex="1" parent="1">
          <mxGeometry x="100" y="470" width="280" height="60" as="geometry" />
        </mxCell>
        <mxCell id="1bwolzDRPxHdKVG914XL-43" value="" style="whiteSpace=wrap;html=1;aspect=fixed;fillStyle=auto;opacity=30;fillColor=#e1d5e7;strokeColor=#9673a6;" vertex="1" parent="1">
          <mxGeometry x="300" y="345" width="310" height="310" as="geometry" />
        </mxCell>
        <mxCell id="1bwolzDRPxHdKVG914XL-50" style="edgeStyle=orthogonalEdgeStyle;rounded=0;orthogonalLoop=1;jettySize=auto;html=1;entryX=0.5;entryY=1;entryDx=0;entryDy=0;" edge="1" parent="1" source="1bwolzDRPxHdKVG914XL-47" target="1bwolzDRPxHdKVG914XL-25">
          <mxGeometry relative="1" as="geometry" />
        </mxCell>
        <mxCell id="1bwolzDRPxHdKVG914XL-47" value="Giorgos" style="shape=umlActor;verticalLabelPosition=bottom;verticalAlign=top;html=1;outlineConnect=0;" vertex="1" parent="1">
          <mxGeometry x="40" y="580" width="55" height="110" as="geometry" />
        </mxCell>
        <mxCell id="1bwolzDRPxHdKVG914XL-51" style="edgeStyle=orthogonalEdgeStyle;rounded=0;orthogonalLoop=1;jettySize=auto;html=1;entryX=0.5;entryY=1;entryDx=0;entryDy=0;" edge="1" parent="1" source="1bwolzDRPxHdKVG914XL-48" target="1bwolzDRPxHdKVG914XL-25">
          <mxGeometry relative="1" as="geometry" />
        </mxCell>
        <mxCell id="1bwolzDRPxHdKVG914XL-48" value="Maria" style="shape=umlActor;verticalLabelPosition=bottom;verticalAlign=top;html=1;outlineConnect=0;" vertex="1" parent="1">
          <mxGeometry x="40" y="310" width="55" height="110" as="geometry" />
        </mxCell>
      </root>
    </mxGraphModel>
  </diagram>
</mxfile>
